<svg width="512" height="512" viewBox="0 0 512 512" fill="none" xmlns="http://www.w3.org/2000/svg">
  <rect width="512" height="512" rx="64" fill="#1e293b"/>
  <path d="M256 128C185.5 128 128 185.5 128 256C128 326.5 185.5 384 256 384C326.5 384 384 326.5 384 256C384 185.5 326.5 128 256 128ZM256 352C203.5 352 160 308.5 160 256C160 203.5 203.5 160 256 160C308.5 160 352 203.5 352 256C352 308.5 308.5 352 256 352Z" fill="#3b82f6"/>
  <path d="M256 208C229.5 208 208 229.5 208 256C208 282.5 229.5 304 256 304C282.5 304 304 282.5 304 256C304 229.5 282.5 208 256 208Z" fill="#60a5fa"/>
  <circle cx="256" cy="256" r="16" fill="#dbeafe"/>
</svg>